<?xml version="1.0" encoding="utf-8"?>
<!-- Generator: Adobe Illustrator 21.1.0, SVG Export Plug-In . SVG Version: 6.00 Build 0)  -->
<svg version="1.1" id="Layer_1" xmlns="http://www.w3.org/2000/svg" xmlns:xlink="http://www.w3.org/1999/xlink" x="0px" y="0px"
	 viewBox="0 0 288 144" style="enable-background:new 0 0 288 144;" xml:space="preserve">
<style type="text/css">
	.st0{fill:#7D7D7D;}
	.st1{fill:#3DB54A;}
</style>
<g>
	<path class="st0" d="M84.1,103c14.8,0,29.7,0,44.5,0c1.8,0,3.5,0,5.3,0c0.9,0,1.7-0.1,2.4,0.7c0.3,0.4,1.2,0.4,1.8,0.4
		c4,0,8,0.1,12.1,0c0.7,0,1.4-0.5,2.2-0.8c0.3-0.1,0.6-0.2,0.8-0.2c16.8,0,33.6,0,50.4,0c0.1,0,0.2,0,0.3,0.1c0.4,2-1.6,4.1-4,4.1
		c-4.8,0-9.7,0-14.5,0c-31.8,0-63.7,0-95.5,0c-2.5,0-4.3-0.7-5.8-2.6C84.1,104,84.1,103.5,84.1,103z"/>
	<path class="st0" d="M144.2,102.2c-15.8,0-31.6,0-47.5,0c-1.4,0-1.6-0.3-1.6-1.9c0-5,0-9.9,0-14.9c0-15,0-29.9,0-44.9
		c0-2.8,0.9-3.7,3.7-3.7c30.4,0,60.8,0,91.2,0c2.1,0,3.3,1.1,3.3,3.2c0,20,0,39.9,0,59.9c0,0.3,0,0.5,0,0.8c-0.1,1-0.4,1.5-1.6,1.5
		C175.9,102.2,160,102.2,144.2,102.2L144.2,102.2z M190.4,40.7c-30.8,0-61.5,0-92.3,0c0,19.3,0,38.5,0,57.7c30.8,0,61.5,0,92.3,0
		C190.4,79.1,190.4,59.9,190.4,40.7z"/>
</g>
<path class="st1" d="M220.8,32.8"/>
</svg>
