<?xml version="1.0" encoding="utf-8"?>
<!-- Generator: Adobe Illustrator 21.1.0, SVG Export Plug-In . SVG Version: 6.00 Build 0)  -->
<svg version="1.1" id="Layer_1" xmlns="http://www.w3.org/2000/svg" xmlns:xlink="http://www.w3.org/1999/xlink" x="0px" y="0px"
	 viewBox="0 0 288 144" style="enable-background:new 0 0 288 144;" xml:space="preserve">
<style type="text/css">
	.st0{fill:#7E7E7E;}
	.st1{fill:#3FB54A;}
	.st2{fill:#333333;}
	.st3{fill:none;stroke:#B4E2ED;stroke-miterlimit:10;}
	.st4{fill:none;stroke:#B4E2ED;stroke-miterlimit:10;stroke-dasharray:2.2004,2.2004;}
	.st5{fill:#7BD1EE;}
	.st6{fill:#F5EAD5;}
	.st7{fill:#C3C1C0;}
	.st8{fill:#72213A;}
</style>
<g>
	<path class="st0" d="M76.1,105c14.8,0,29.7,0,44.5,0c1.8,0,3.5,0,5.3,0c0.9,0,1.7-0.1,2.4,0.7c0.3,0.4,1.2,0.4,1.8,0.4
		c4,0,8,0.1,12.1,0c0.7,0,1.4-0.5,2.2-0.8c0.3-0.1,0.6-0.2,0.8-0.2c16.8,0,33.6,0,50.4,0c0.1,0,0.2,0,0.3,0.1c0.4,2-1.6,4.1-4,4.1
		c-4.8,0-9.7,0-14.5,0c-31.8,0-63.7,0-95.5,0c-2.5,0-4.3-0.7-5.8-2.6C76.1,106,76.1,105.5,76.1,105z"/>
	<path class="st0" d="M136.2,104.2c-15.8,0-31.6,0-47.5,0c-1.4,0-1.6-0.3-1.6-1.9c0-5,0-9.9,0-14.9c0-15,0-29.9,0-44.9
		c0-2.8,0.9-3.7,3.7-3.7c30.4,0,60.8,0,91.2,0c2.1,0,3.3,1.1,3.3,3.2c0,20,0,39.9,0,59.9c0,0.3,0,0.5,0,0.8c-0.1,1-0.4,1.5-1.6,1.5
		C167.9,104.2,152,104.2,136.2,104.2L136.2,104.2z M182.4,42.7c-30.8,0-61.5,0-92.3,0c0,19.3,0,38.5,0,57.7c30.8,0,61.5,0,92.3,0
		C182.4,81.1,182.4,61.9,182.4,42.7z"/>
</g>
<path class="st1" d="M212.8,34.8"/>
<path class="st2" d="M134,90.8h-32.6c-2,0-3.6-1.6-3.6-3.6V54.6c0-2,1.6-3.6,3.6-3.6H134c2,0,3.6,1.6,3.6,3.6v32.6
	C137.6,89.2,136,90.8,134,90.8z"/>
<g>
	<g>
		<path class="st3" d="M128.5,70.9c0,0,0.2-0.3,0.6-0.8"/>
		<path class="st4" d="M130.6,68.5c2.1-1.8,5.7-3.8,11.3-3.4"/>
		<path class="st3" d="M143,65.3c0.3,0,0.7,0.1,1,0.2"/>
	</g>
</g>
<path class="st5" d="M141.9,66l1.9,7.6c0.1,0.3,0.4,0.5,0.7,0.4l5.5-1.4c0.3-0.1,0.5-0.4,0.4-0.7l-1.2-4.8c0-0.1-0.1-0.2-0.2-0.3
	l-2.3-2.3c-0.2-0.2-0.4-0.2-0.6-0.2l-3.9,1C142.1,65.3,141.9,65.7,141.9,66z"/>
<path d="M151.9,74.3c-0.7,0.1-1.4,0.1-2.2,0.2c0.4,0.9,0.8,1.8,1.2,2.7c-0.3,0.1-0.5,0.2-0.8,0.4c-0.4-0.9-0.8-1.8-1.2-2.8
	c-0.5,0.5-1,1-1.5,1.5c0-2.1,0-4.1,0-6.2C148.9,71.5,150.4,72.9,151.9,74.3z"/>
<g>
	<path class="st6" d="M123.5,77.6h-11.6c-0.3,0-0.6-0.3-0.6-0.6V62.3c0-0.3,0.3-0.6,0.6-0.6h11.6c0.3,0,0.6,0.3,0.6,0.6V77
		C124.1,77.3,123.8,77.6,123.5,77.6z"/>
	<path class="st7" d="M122.6,72.7h-9.9c-0.3,0-0.6-0.3-0.6-0.6v-8.7c0-0.3,0.3-0.6,0.6-0.6h9.9c0.3,0,0.6,0.3,0.6,0.6v8.7
		C123.2,72.5,123,72.7,122.6,72.7z"/>
	<g>
		<path class="st8" d="M117.2,74.7c-1.5,0-2.5-1-2.5-2.3c0-1.8,1.9-2.8,1.9-2.8c-1-0.1-3.5-1-3.5-3.8c0-2.8,2.3-4.8,4.8-4.8
			c2,0,3.4,1.1,3.4,3c0,1.6-1.2,3-2.7,3c-1.3,0-2.1-0.8-2.1-1.8c0-1.3,0.9-2.2,1.3-2.4c0.1-0.1,0.2-0.1,0.2-0.1
			c0.1,0,0.1,0.1,0.1,0.2c0,0.1,0,0.1-0.1,0.2c-0.2,0.3-0.6,0.9-0.6,2c0,0.8,0.3,1.5,1.2,1.5c0.8,0,1.5-1.1,1.5-2.7
			c0-1.4-0.8-2.4-2.2-2.4c-1.9,0-3.6,1.7-3.6,4.1c0,2.4,1.7,3.5,2.7,3.6c0.3-0.2,0.9-0.5,1.4-0.5c0.3,0,0.5,0.2,0.5,0.5
			c0,0.4-0.4,0.7-1.3,0.7c-0.2,0-0.5,0-0.5,0s-1.3,1.1-1.3,2.5c0,1.1,0.8,1.8,2,1.8c2.6,0,3.9-3.6,3.9-3.6s0.1-0.2,0.2-0.2
			c0.1,0,0.2,0.1,0.2,0.2c0,0.1,0,0.2,0,0.2S121,74.7,117.2,74.7z M118,61.8c0.2,0,0.5,0,0.7,0.1c-0.1,0-0.3,0-0.4,0
			c-1.9,0-3.6,1.7-3.6,4.1c0,0.2,0,0.4,0,0.6c-0.1-0.3-0.1-0.8-0.1-0.9C114.6,63.5,116,61.8,118,61.8z M116.3,72.7
			c-0.1-0.2-0.1-0.3-0.1-0.5c0-0.8,0.6-1.6,1.2-2.2c0.1,0,0.4,0,0.5,0c1,0,1.4-0.4,1.5-0.9c0.1,0.1,0.1,0.2,0.1,0.3
			c0,0.4-0.4,0.7-1.3,0.7c-0.2,0-0.5,0-0.5,0S116.3,71.2,116.3,72.7L116.3,72.7z M122.5,70.7c0.1,0,0.1,0.1,0.1,0.2
			c0,0.1,0,0.2,0,0.2s-1.2,4-5,4c-0.3,0-0.4,0-0.5-0.1c0,0,0.1,0,0.2,0C120.4,75,121.7,72.6,122.5,70.7z M118.4,63.1
			c0.1,0,0.1,0.1,0.1,0.2c0,0.1,0,0.1-0.1,0.2c-0.2,0.3-0.6,0.9-0.6,2v0.2c-0.1-0.2-0.1-0.5-0.1-0.6
			C117.8,63.9,118.4,63.3,118.4,63.1z M121.5,63.6c0.1,0.3,0.1,0.6,0.1,0.9c0,1.6-1.2,3-2.7,3c-0.3,0-0.5,0-0.8-0.1
			c0.1,0,0.3,0,0.4,0C120.7,67.4,121.7,65.1,121.5,63.6z"/>
	</g>
</g>
</svg>
