<?xml version="1.0" encoding="utf-8"?>
<!-- Generator: Adobe Illustrator 21.1.0, SVG Export Plug-In . SVG Version: 6.00 Build 0)  -->
<svg version="1.1" id="Layer_1" xmlns="http://www.w3.org/2000/svg" xmlns:xlink="http://www.w3.org/1999/xlink" x="0px" y="0px"
	 viewBox="0 0 288 144" style="enable-background:new 0 0 288 144;" xml:space="preserve">
<style type="text/css">
	.st0{fill:#939393;}
	.st1{fill:#7C7C7C;}
	.st2{fill:#AAAAAA;}
	.st3{fill:#39B54A;}
	.st4{fill:none;}
</style>
<path class="st0" d="M161.9,61.1h-4.5c-0.6,0-1,0.5-1,1v1.9c0,0.6,0.5,1,1,1h4.5c0.6,0,1-0.5,1-1v-1.9
	C163,61.6,162.5,61.1,161.9,61.1z"/>
<g>
	<path class="st1" d="M77.9,104.2c14.8,0,29.7,0,44.5,0c1.8,0,3.5,0,5.3,0c0.9,0,1.7-0.1,2.4,0.7c0.3,0.4,1.2,0.4,1.8,0.4
		c4,0,8,0.1,12.1,0c0.7,0,1.4-0.5,2.2-0.8c0.3-0.1,0.6-0.2,0.8-0.2c16.8,0,33.6,0,50.4,0c0.1,0,0.2,0,0.3,0.1c0.4,2-1.6,4.1-4,4.1
		c-4.8,0-9.7,0-14.5,0c-31.8,0-63.7,0-95.5,0c-2.5,0-4.3-0.7-5.8-2.6C77.9,105.2,77.9,104.7,77.9,104.2z"/>
	<path class="st1" d="M138,103.4c-15.8,0-31.6,0-47.5,0c-1.4,0-1.6-0.3-1.6-1.9c0-5,0-9.9,0-14.9c0-15,0-29.9,0-44.9
		c0-2.8,0.9-3.7,3.7-3.7c30.4,0,60.8,0,91.2,0c2.1,0,3.3,1.1,3.3,3.2c0,20,0,39.9,0,59.9c0,0.3,0,0.5,0,0.8c-0.1,1-0.4,1.5-1.6,1.5
		C169.7,103.4,153.8,103.4,138,103.4C138,103.4,138,103.4,138,103.4z M184.2,41.9c-30.8,0-61.5,0-92.3,0c0,19.3,0,38.5,0,57.7
		c30.8,0,61.5,0,92.3,0C184.2,80.3,184.2,61.1,184.2,41.9z"/>
</g>
<path class="st1" d="M199.5,94.7h-45.1c-2.5,0-4.6-2-4.6-4.6V69c0-2.5,2-4.6,4.6-4.6h45.1c2.5,0,4.6,2,4.6,4.6v21.2
	C204,92.7,202,94.7,199.5,94.7z"/>
<circle cx="176.9" cy="79.9" r="12.6"/>
<circle class="st2" cx="176.9" cy="79.9" r="10.2"/>
<path class="st3" d="M187.5,46.2h34.3c0.3,0,0.5,0.2,0.5,0.5V75c0,0.3-0.2,0.5-0.5,0.5h-17.4c-0.3,0-0.5-0.2-0.5-0.5v-2.4
	c0-0.3,0.2-0.5,0.5-0.5H218c0.3,0,0.5-0.2,0.5-0.5V50.3c0-0.3-0.2-0.5-0.5-0.5h-30.5c-0.3,0-0.5-0.2-0.5-0.5v-2.7
	C187.1,46.4,187.3,46.2,187.5,46.2z"/>
<path class="st3" d="M231.8,28.8"/>
<line class="st4" x1="191.2" y1="46.2" x2="194.6" y2="49.6"/>
</svg>
