<?xml version="1.0" encoding="utf-8"?>
<!-- Generator: Adobe Illustrator 21.1.0, SVG Export Plug-In . SVG Version: 6.00 Build 0)  -->
<svg version="1.1" id="Layer_1" xmlns="http://www.w3.org/2000/svg" xmlns:xlink="http://www.w3.org/1999/xlink" x="0px" y="0px"
	 viewBox="0 0 288 144" style="enable-background:new 0 0 288 144;" xml:space="preserve">
<style type="text/css">
	.st0{fill:#939393;}
	.st1{fill:#7C7C7C;}
	.st2{fill:#AAAAAA;}
	.st3{fill:#39B54A;}
	.st4{fill:none;}
</style>
<g>
	<path class="st0" d="M151.1,59.8h-4.5c-0.6,0-1,0.5-1,1v1.9c0,0.6,0.5,1,1,1h4.5c0.6,0,1-0.5,1-1v-1.9
		C152.2,60.3,151.7,59.8,151.1,59.8z"/>
	<g>
		<path class="st1" d="M67.1,102.9c14.8,0,29.7,0,44.5,0c1.8,0,3.5,0,5.3,0c0.9,0,1.7-0.1,2.4,0.7c0.3,0.4,1.2,0.4,1.8,0.4
			c4,0,8,0.1,12.1,0c0.7,0,1.4-0.5,2.2-0.8c0.3-0.1,0.6-0.2,0.8-0.2c16.8,0,33.6,0,50.4,0c0.1,0,0.2,0,0.3,0.1c0.4,2-1.6,4.1-4,4.1
			c-4.8,0-9.7,0-14.5,0c-31.8,0-63.7,0-95.5,0c-2.5,0-4.3-0.7-5.8-2.6C67.1,103.9,67.1,103.4,67.1,102.9z"/>
		<path class="st1" d="M127.2,102.1c-15.8,0-31.6,0-47.5,0c-1.4,0-1.6-0.3-1.6-1.9c0-5,0-9.9,0-14.9c0-15,0-29.9,0-44.9
			c0-2.8,0.9-3.7,3.7-3.7c30.4,0,60.8,0,91.2,0c2.1,0,3.3,1.1,3.3,3.2c0,20,0,39.9,0,59.9c0,0.3,0,0.5,0,0.8c-0.1,1-0.4,1.5-1.6,1.5
			C158.9,102.1,143,102.1,127.2,102.1L127.2,102.1z M173.4,40.6c-30.8,0-61.5,0-92.3,0c0,19.3,0,38.5,0,57.7c30.8,0,61.5,0,92.3,0
			C173.4,79,173.4,59.8,173.4,40.6z"/>
	</g>
	<path class="st1" d="M188.7,93.4h-45.1c-2.5,0-4.6-2-4.6-4.6V67.7c0-2.5,2-4.6,4.6-4.6h45.1c2.5,0,4.6,2,4.6,4.6v21.2
		C193.2,91.4,191.2,93.4,188.7,93.4z"/>
	<circle cx="166.1" cy="78.6" r="12.6"/>
	<circle class="st2" cx="166.1" cy="78.6" r="10.2"/>
	<path class="st3" d="M176.7,44.9H211c0.3,0,0.5,0.2,0.5,0.5v28.3c0,0.3-0.2,0.5-0.5,0.5h-17.4c-0.3,0-0.5-0.2-0.5-0.5v-2.4
		c0-0.3,0.2-0.5,0.5-0.5h13.6c0.3,0,0.5-0.2,0.5-0.5V49c0-0.3-0.2-0.5-0.5-0.5h-30.5c-0.3,0-0.5-0.2-0.5-0.5v-2.7
		C176.2,45.1,176.4,44.9,176.7,44.9z"/>
	<path class="st3" d="M220.9,27.5"/>
	<line class="st4" x1="180.4" y1="44.9" x2="183.9" y2="48.3"/>
</g>
</svg>
