<?xml version="1.0" encoding="utf-8"?>
<!-- Generator: Adobe Illustrator 21.1.0, SVG Export Plug-In . SVG Version: 6.00 Build 0)  -->
<svg version="1.1" id="Layer_1" xmlns="http://www.w3.org/2000/svg" xmlns:xlink="http://www.w3.org/1999/xlink" x="0px" y="0px"
	 viewBox="0 0 144 144" style="enable-background:new 0 0 144 144;" xml:space="preserve">
<style type="text/css">
	.st0{fill:#F6EAD5;}
	.st1{fill:#C2C1C0;}
	.st2{fill:#712039;}
</style>
<path class="st0" d="M112.7,127.9H31.3c-2.3,0-4.1-1.8-4.1-4.1V20.2c0-2.3,1.8-4.1,4.1-4.1h81.4c2.3,0,4.1,1.8,4.1,4.1v103.6
	C116.8,126.1,114.9,127.9,112.7,127.9z"/>
<path class="st1" d="M106.7,93.7H37.3c-2.3,0-4.1-1.8-4.1-4.1V28.4c0-2.3,1.8-4.1,4.1-4.1h69.4c2.3,0,4.1,1.8,4.1,4.1v61.2
	C110.8,91.9,109,93.7,106.7,93.7z"/>
<g>
	<path class="st2" d="M68.6,107.7c-10.8,0-17.8-7-17.8-15.9c0-12.8,13.5-19.6,13.5-19.6c-7-0.6-24.7-6.9-24.7-27
		c0-19.6,16.2-33.9,34-33.9c13.7,0,23.7,7.4,23.7,21.2c0,11.2-8.1,21.4-18.7,21.4C69.7,53.9,64,48,64,41.1c0-9.2,6-15.2,9.2-17.2
		c0.8-0.5,1.2-0.7,1.7-0.7c0.6,0,1,0.6,1,1.1c0,0.5-0.2,0.8-0.6,1.4c-1.2,2.2-4.2,6.6-4.2,14.3c0,5.3,2.2,10.5,8.4,10.5
		C85,50.5,90,42.9,90,31.7c0-9.5-5.7-17-15.7-17c-13.6,0-25.5,11.6-25.5,28.7c0,17.2,11.6,24.6,19.3,25.3c2.2-1.2,6.1-3.7,10.1-3.7
		c2.3,0,3.7,1.5,3.7,3.3c0,2.7-2.9,4.7-9,4.8c-1.1,0-3.7-0.2-3.7-0.2s-9.4,7.5-9.4,17.5c0,7.5,5.9,12.9,14.3,12.9
		c18.4,0,27.1-25,27.1-25s0.5-1.2,1.5-1.2c0.8,0,1.4,0.5,1.4,1.2c0,0.6-0.3,1.6-0.3,1.6S95.2,107.7,68.6,107.7z M74.4,17
		c1.6,0,3.6,0.3,5.1,0.8c-0.9-0.1-1.8-0.2-2.8-0.2c-13.6,0-25.5,11.6-25.5,28.7c0,1.5,0.1,2.8,0.2,4.2c-0.6-2.2-0.8-5.8-0.8-6.6
		C50.5,28.9,60.4,17,74.4,17z M62.1,93.5c-0.5-1.2-0.6-2.4-0.6-3.3c0-5.8,4-11.1,8.1-15.1c0.8,0.1,2.7,0.1,3.4,0.1
		c7.1,0,10.1-2.9,10.5-6.1c0.5,0.6,0.7,1.2,0.7,1.9c0,2.7-2.9,4.7-9,4.8c-1.1,0-3.7-0.2-3.7-0.2s-9.4,7.5-9.4,17.5V93.5z
		 M105.5,79.8c0.6,0.1,0.8,0.7,0.8,1.2c0,0.6-0.3,1.6-0.3,1.6s-8.5,27.9-35.2,27.9c-1.8,0-3.1-0.3-3.6-0.7c0.1,0.1,0.7,0.1,1.4,0.1
		C91,110,100.3,92.5,105.5,79.8z M77.3,26c0.6,0,0.9,0.6,0.9,1.1c0,0.5-0.2,0.8-0.6,1.4c-1.2,2.2-4.2,6.6-4.2,14.3v1.1
		c-0.5-1.1-0.6-3.2-0.6-4C72.9,32,76.9,27.2,77.3,26z M98.9,29.3c0.5,1.8,0.7,3.9,0.7,6c0,11.2-8.1,21.4-18.7,21.4
		c-1.8,0-3.7-0.3-5.3-0.8c0.6,0,2.4,0.2,3.1,0.2C93.3,56.2,99.9,39.9,98.9,29.3z"/>
</g>
</svg>
