<?xml version="1.0" encoding="utf-8"?>
<!-- Generator: Adobe Illustrator 21.1.0, SVG Export Plug-In . SVG Version: 6.00 Build 0)  -->
<svg version="1.1" id="Layer_1" xmlns="http://www.w3.org/2000/svg" xmlns:xlink="http://www.w3.org/1999/xlink" x="0px" y="0px"
	 viewBox="0 0 288 144" style="enable-background:new 0 0 288 144;" xml:space="preserve">
<style type="text/css">
	.st0{fill:#F5EAD5;}
	.st1{fill:#C3C1C0;}
	.st2{fill:#72213A;}
	.st3{fill:#010101;}
	.st4{fill:#636464;}
	.st5{fill:#775C34;}
	.st6{fill:#E6ECD5;}
	.st7{fill:none;stroke:#E6ECD5;stroke-miterlimit:10;}
	.st8{fill:#636464;stroke:#000000;stroke-miterlimit:10;}
</style>
<g>
	<path class="st0" d="M171.5,106h-54.9c-1.6,0-2.8-1.2-2.8-2.8V33.3c0-1.6,1.2-2.8,2.8-2.8h54.9c1.6,0,2.8,1.2,2.8,2.8v69.9
		C174.2,104.7,173,106,171.5,106z"/>
	<path class="st1" d="M167.4,82.9h-46.8c-1.6,0-2.8-1.2-2.8-2.8V38.8c0-1.6,1.2-2.8,2.8-2.8h46.8c1.6,0,2.8,1.2,2.8,2.8v41.3
		C170.2,81.7,169,82.9,167.4,82.9z"/>
	<g>
		<path class="st2" d="M141.7,92.3c-7.3,0-12-4.7-12-10.7c0-8.6,9.1-13.2,9.1-13.2c-4.7-0.4-16.7-4.7-16.7-18.2
			c0-13.2,10.9-22.9,23-22.9c9.2,0,16,5,16,14.3c0,7.6-5.5,14.4-12.6,14.4c-6,0-9.9-4-9.9-8.6c0-6.2,4.1-10.3,6.2-11.6
			c0.5-0.3,0.8-0.5,1.1-0.5c0.4,0,0.7,0.4,0.7,0.7s-0.1,0.5-0.4,0.9c-0.8,1.5-2.8,4.5-2.8,9.7c0,3.6,1.5,7.1,5.7,7.1
			c3.7,0,7.1-5.1,7.1-12.7c0-6.4-3.8-11.5-10.6-11.5c-9.2,0-17.2,7.8-17.2,19.4c0,11.6,7.8,16.6,13,17.1c1.5-0.8,4.1-2.5,6.8-2.5
			c1.6,0,2.5,1,2.5,2.2c0,1.8-2,3.2-6.1,3.2c-0.7,0-2.5-0.1-2.5-0.1s-6.3,5.1-6.3,11.8c0,5.1,4,8.7,9.7,8.7
			c12.4,0,18.3-16.9,18.3-16.9s0.3-0.8,1-0.8c0.5,0,0.9,0.3,0.9,0.8c0,0.4-0.2,1.1-0.2,1.1S159.7,92.3,141.7,92.3z M145.6,31.1
			c1.1,0,2.4,0.2,3.4,0.5c-0.6-0.1-1.2-0.1-1.9-0.1c-9.2,0-17.2,7.8-17.2,19.4c0,1,0.1,1.9,0.1,2.8c-0.4-1.5-0.5-3.9-0.5-4.5
			C129.5,39.1,136.2,31.1,145.6,31.1z M137.3,82.7c-0.3-0.8-0.4-1.6-0.4-2.2c0-3.9,2.7-7.5,5.5-10.2c0.5,0.1,1.8,0.1,2.3,0.1
			c4.8,0,6.8-2,7.1-4.1c0.3,0.4,0.5,0.8,0.5,1.3c0,1.8-2,3.2-6.1,3.2c-0.7,0-2.5-0.1-2.5-0.1s-6.3,5.1-6.3,11.8V82.7z M166.6,73.5
			c0.4,0.1,0.5,0.5,0.5,0.8c0,0.4-0.2,1.1-0.2,1.1s-5.7,18.8-23.8,18.8c-1.2,0-2.1-0.2-2.4-0.5c0.1,0.1,0.5,0.1,0.9,0.1
			C156.8,93.9,163.1,82.1,166.6,73.5z M147.6,37.2c0.4,0,0.6,0.4,0.6,0.7c0,0.3-0.1,0.5-0.4,0.9c-0.8,1.5-2.8,4.5-2.8,9.7v0.7
			c-0.3-0.7-0.4-2.2-0.4-2.7C144.6,41.2,147.3,38,147.6,37.2z M162.2,39.4c0.3,1.2,0.5,2.6,0.5,4.1c0,7.6-5.5,14.4-12.6,14.4
			c-1.2,0-2.5-0.2-3.6-0.5c0.4,0,1.6,0.1,2.1,0.1C158.4,57.6,162.8,46.6,162.2,39.4z"/>
	</g>
</g>
<path class="st3" d="M201,113.9c-1.8,0.3-3.7,0.3-5.8,0.5c1.1,2.4,2.1,4.7,3.2,7.1c-0.8,0.3-1.3,0.5-2.1,1.1
	c-1.1-2.4-2.1-4.7-3.2-7.4c-1.3,1.3-2.6,2.6-4,4c0-5.5,0-10.8,0-16.4C193.1,106.5,197,110.2,201,113.9z"/>
<g>
	<path class="st4" d="M214.3,65.2l0.2,3.8H214c-0.1-0.7-0.2-1.1-0.4-1.4c-0.2-0.5-0.6-0.8-1-1s-0.9-0.3-1.6-0.3h-2.3v12.2
		c0,1,0.1,1.6,0.3,1.8c0.3,0.3,0.8,0.5,1.4,0.5h0.6v0.4h-6.8v-0.4h0.6c0.7,0,1.2-0.2,1.4-0.6c0.2-0.3,0.3-0.8,0.3-1.7V66.2h-1.9
		c-0.7,0-1.3,0.1-1.6,0.2c-0.4,0.1-0.8,0.4-1.1,0.9s-0.5,1-0.5,1.7H201l0.2-3.8H214.3z"/>
</g>
<g>
	<path class="st5" d="M189.2,26.3c0,0,13,10.4,10.1,12.5c-2.6,1.9-13.1-9-13.1-9S188.9,28.6,189.2,26.3z"/>
	<path class="st6" d="M181.2,18.9c0,0,0.9,2.4,3.9,2.4s4.2,4.2,2,6.4c-2.2,2.2-5.3,1.8-6.6-1.3C179.2,23.2,181.2,18.9,181.2,18.9z"
		/>
</g>
<rect x="85.4" y="33.9" transform="matrix(0.7071 0.7071 -0.7071 0.7071 51.9908 -52.5054)" class="st7" width="8" height="5.1"/>
<rect x="89.2" y="25.9" transform="matrix(0.7071 -0.7071 0.7071 0.7071 5.8014 76.1406)" class="st4" width="11.2" height="10.3"/>
<g>
	<polygon class="st4" points="77.5,60.7 79.4,60.2 82,70.5 87,69.2 87.5,70.9 80.6,72.6 	"/>
	<polygon class="st4" points="90.6,75.7 88.7,76.2 86.1,65.9 81.1,67.2 80.6,65.6 87.5,63.8 	"/>
</g>
<rect x="82.1" y="102.7" class="st8" width="17" height="17"/>
</svg>
