<?xml version="1.0" encoding="utf-8"?>
<!-- Generator: Adobe Illustrator 21.1.0, SVG Export Plug-In . SVG Version: 6.00 Build 0)  -->
<svg version="1.1" id="Layer_1" xmlns="http://www.w3.org/2000/svg" xmlns:xlink="http://www.w3.org/1999/xlink" x="0px" y="0px"
	 viewBox="0 0 288 144" style="enable-background:new 0 0 288 144;" xml:space="preserve">
<style type="text/css">
	.st0{fill:#B8C57B;}
	.st1{fill:#409945;}
	.st2{fill:#CADF89;}
	.st3{fill:#4CB750;}
	.st4{fill:none;stroke:#231F20;stroke-width:0.9341;stroke-miterlimit:10;}
	.st5{fill:#AC6529;}
	.st6{fill:#965927;}
	.st7{fill:#E3E4E4;}
	.st8{fill:#7ECECE;}
	.st9{fill:#7F4B1F;}
</style>
<g>
	<g>
		<g>
			<rect x="110.4" y="50.4" class="st0" width="55" height="17.7"/>
		</g>
		<rect x="112.6" y="52.7" class="st1" width="50.5" height="13.2"/>
	</g>
	<g>
		<g>
			<rect x="107.1" y="50.4" class="st2" width="55" height="17.7"/>
		</g>
		<rect x="109.3" y="52.7" class="st3" width="50.5" height="13.2"/>
	</g>
	<path class="st4" d="M183.5,89h-26.9c-2.9,0-5.3-2.4-5.3-5.3V68.1c0-2.9,2.4-5.3,5.3-5.3h26.9c2.9,0,5.3,2.4,5.3,5.3v15.6
		C188.9,86.6,186.5,89,183.5,89z"/>
	<path class="st5" d="M186.9,94.7h-77.4c-3.1,0-5.6-2.5-5.6-5.6V60.4c0-3.1,2.5-5.6,5.6-5.6h77.3c3.1,0,5.6,2.5,5.6,5.6v28.8
		C192.4,92.3,189.9,94.7,186.9,94.7z"/>
	<path class="st6" d="M139.3,89.1h-26.9c-2.9,0-5.3-2.4-5.3-5.3V68.1c0-2.9,2.4-5.3,5.3-5.3h26.9c2.9,0,5.3,2.4,5.3,5.3v15.6
		C144.6,86.7,142.2,89.1,139.3,89.1z"/>
	<path class="st7" d="M137.9,82.8h-24.2c-1.5,0-2.7-1.2-2.7-2.7v-8.3c0-1.5,1.2-2.7,2.7-2.7h24.2c1.5,0,2.7,1.2,2.7,2.7v8.3
		C140.6,81.6,139.4,82.8,137.9,82.8z"/>
	<path class="st8" d="M182.2,75H158c-1.5,0-2.7-1.2-2.7-2.7V64c0-1.5,1.2-2.7,2.7-2.7h24.2c1.5,0,2.7,1.2,2.7,2.7v8.3
		C184.9,73.8,183.7,75,182.2,75z"/>
	<path class="st9" d="M107.1,80.5v4.2c0,2.4,1.9,4.3,4.3,4.3h28.9c2.4,0,4.3-1.9,4.3-4.3v-4.2H107.1z"/>
	<path class="st9" d="M151.3,70.1v13.6c0,2.9,2.4,5.3,5.3,5.3h26.9c2.9,0,5.3-2.4,5.3-5.3V70.1H151.3z"/>
	<path class="st9" d="M103.9,81.8h-3.4c-2.7,0-4.9-2.2-4.9-4.9l0,0c0-2.7,2.2-4.9,4.9-4.9h3.4V81.8z"/>
	<circle class="st7" cx="99.7" cy="76.9" r="2.2"/>
</g>
</svg>
