<?xml version="1.0" encoding="utf-8"?>
<!-- Generator: Adobe Illustrator 21.1.0, SVG Export Plug-In . SVG Version: 6.00 Build 0)  -->
<svg version="1.1" id="Layer_1" xmlns="http://www.w3.org/2000/svg" xmlns:xlink="http://www.w3.org/1999/xlink" x="0px" y="0px"
	 viewBox="0 0 288 144" style="enable-background:new 0 0 288 144;" xml:space="preserve">
<style type="text/css">
	.st0{fill:#B8C57B;}
	.st1{fill:#409945;}
	.st2{fill:#CADF89;}
	.st3{fill:#4CB750;}
	.st4{fill:none;stroke:#231F20;stroke-width:0.9341;stroke-miterlimit:10;}
	.st5{fill:#AC6529;}
	.st6{fill:#965927;}
	.st7{fill:#E3E4E4;}
	.st8{fill:#7ECECE;}
	.st9{fill:#7F4B1F;}
</style>
<g>
	<g>
		<rect x="82.3" y="50.4" class="st0" width="55" height="17.7"/>
	</g>
	<rect x="84.5" y="52.7" class="st1" width="50.5" height="13.2"/>
</g>
<g>
	<g>
		<rect x="79" y="50.4" class="st2" width="55" height="17.7"/>
	</g>
	<rect x="81.2" y="52.7" class="st3" width="50.5" height="13.2"/>
</g>
<path class="st4" d="M155.4,89h-26.9c-2.9,0-5.3-2.4-5.3-5.3V68.1c0-2.9,2.4-5.3,5.3-5.3h26.9c2.9,0,5.3,2.4,5.3,5.3v15.6
	C160.8,86.6,158.4,89,155.4,89z"/>
<path class="st5" d="M158.8,94.7H81.4c-3.1,0-5.6-2.5-5.6-5.6V60.4c0-3.1,2.5-5.6,5.6-5.6h77.3c3.1,0,5.6,2.5,5.6,5.6v28.8
	C164.3,92.3,161.8,94.7,158.8,94.7z"/>
<path class="st6" d="M111.2,89.1H84.3c-2.9,0-5.3-2.4-5.3-5.3V68.1c0-2.9,2.4-5.3,5.3-5.3h26.9c2.9,0,5.3,2.4,5.3,5.3v15.6
	C116.5,86.7,114.1,89.1,111.2,89.1z"/>
<path class="st7" d="M109.8,82.8H85.6c-1.5,0-2.7-1.2-2.7-2.7v-8.3c0-1.5,1.2-2.7,2.7-2.7h24.2c1.5,0,2.7,1.2,2.7,2.7v8.3
	C112.5,81.6,111.3,82.8,109.8,82.8z"/>
<path class="st8" d="M154.1,75h-24.2c-1.5,0-2.7-1.2-2.7-2.7V64c0-1.5,1.2-2.7,2.7-2.7h24.2c1.5,0,2.7,1.2,2.7,2.7v8.3
	C156.8,73.8,155.6,75,154.1,75z"/>
<path class="st9" d="M79,80.5v4.2c0,2.4,1.9,4.3,4.3,4.3h28.9c2.4,0,4.3-1.9,4.3-4.3v-4.2H79z"/>
<path class="st9" d="M123.2,70.1v13.6c0,2.9,2.4,5.3,5.3,5.3h26.9c2.9,0,5.3-2.4,5.3-5.3V70.1H123.2z"/>
<path class="st9" d="M75.8,81.8h-3.4c-2.7,0-4.9-2.2-4.9-4.9v0c0-2.7,2.2-4.9,4.9-4.9h3.4V81.8z"/>
<circle class="st7" cx="71.6" cy="76.9" r="2.2"/>
</svg>
